<svg width="764" height="274" viewBox="0 0 764 274" fill="none" xmlns="http://www.w3.org/2000/svg">
<path d="M350.783 63V101.018M350.783 101.018L325.347 113.224C318.412 116.553 314 123.563 314 131.256V177.86C314 184.934 317.738 191.483 323.829 195.081L339.986 204.624C346.589 208.523 354.839 208.304 361.226 204.061L374.547 195.21C380.125 191.503 383.478 185.25 383.478 178.552V130.601C383.478 123.251 379.447 116.493 372.979 113.002L350.783 101.018ZM418.899 101.018V83C418.899 71.9543 427.853 63 438.899 63H446.826C461.268 63 470.949 77.8374 465.132 91.0556L457.268 108.927C452.088 120.697 463.598 132.912 475.655 128.44V128.44C486.723 124.335 497.818 134.418 494.787 145.827L477.478 211" stroke="white" stroke-width="22" stroke-linecap="round"/>
<path d="M618.588 100.896V93.383C618.588 82.3373 609.633 73.383 598.588 73.383H563.851C552.806 73.383 543.851 82.3373 543.851 93.383V180.182C543.851 191.228 552.806 200.182 563.851 200.182H598.588C609.633 200.182 618.588 191.228 618.588 180.182V161.567C618.588 150.522 609.633 141.567 598.588 141.567H583.63" stroke="white" stroke-width="22" stroke-linecap="round"/>
<path d="M752.39 88.598V92.5224V178.986C752.39 190.031 743.436 198.986 732.39 198.986H696.448C685.403 198.986 676.448 190.031 676.448 178.986V88.598C676.448 77.5523 685.403 68.598 696.448 68.598H732.39C743.436 68.598 752.39 77.5523 752.39 88.598Z" stroke="white" stroke-width="22" stroke-linecap="round"/>
<path d="M95.1508 33.8219L100.502 43.1336C102.001 45.7023 102.75 48.6457 102.75 51.6426V73.798C102.75 75.8852 103.606 77.9188 105.051 79.3637C108.369 82.6816 113.881 82.4141 116.825 78.7215L124.103 69.6238C126.618 66.4664 131.006 65.5031 134.592 67.3227L142.726 71.3898C144.546 72.2996 146.579 72.7812 148.613 72.7812C152.091 72.7812 155.463 71.3898 157.925 68.9281L160.012 66.841C161.564 65.2891 163.918 64.9145 165.898 65.8777L181.525 73.691C185.699 75.7781 188.268 80.0059 188.268 84.6617C188.268 90.2809 184.468 95.1508 179.01 96.5422L160.065 101.252C156.105 102.215 151.984 102.054 148.078 100.77L130.953 95.0438C129.187 94.4551 127.367 94.134 125.494 94.134C121.748 94.134 118.109 95.3648 115.112 97.6125L94.1875 113.453C88.7824 117.52 85.625 123.835 85.625 130.578V145.562C85.625 159.744 97.1309 171.25 111.312 171.25H128.438C133.147 171.25 137 175.103 137 179.812V205.5C137 214.972 144.653 222.625 154.125 222.625C159.53 222.625 164.614 220.11 167.825 215.775L181.525 197.526C185.967 191.586 188.375 184.361 188.375 176.976V170.501C188.375 168.414 189.766 166.594 191.8 166.112L194.636 165.417C201.005 163.811 205.5 158.085 205.5 151.503C205.5 147.703 204.002 144.064 201.326 141.388L183.398 123.461C181.418 121.48 181.418 118.27 183.398 116.289C186.448 113.239 190.944 112.169 195.064 113.56L202.61 116.075C209.193 118.27 216.364 115.273 219.468 109.118C221.341 105.372 225.461 103.339 229.582 104.195L244.245 107.138C231.187 60.1516 188.107 25.6875 137 25.6875C122.176 25.6875 108.102 28.5773 95.1508 33.8219ZM0 137C0 100.665 14.4339 65.8189 40.1264 40.1264C65.8189 14.4339 100.665 0 137 0C173.335 0 208.181 14.4339 233.874 40.1264C259.566 65.8189 274 100.665 274 137C274 173.335 259.566 208.181 233.874 233.874C208.181 259.566 173.335 274 137 274C100.665 274 65.8189 259.566 40.1264 233.874C14.4339 208.181 0 173.335 0 137Z" fill="white"/>
</svg>
